<svg width="50" height="50" viewBox="0 0 50 50" fill="none" xmlns="http://www.w3.org/2000/svg">
<g clip-path="url(#clip0)">
<path fill-rule="evenodd" clip-rule="evenodd" d="M6.87051 25.4912C7.45581 25.4912 8.05875 25.6235 8.62345 25.9059L26.4764 34.8294L44.3264 25.9059C45.2566 25.4409 46.3334 25.3646 47.3199 25.6936C48.3064 26.0226 49.1218 26.7301 49.5867 27.6603C50.0516 28.5905 50.1279 29.6673 49.7989 30.6538C49.4699 31.6403 48.7625 32.4557 47.8323 32.9206L28.2264 42.7235C27.6818 42.9963 27.0811 43.1383 26.472 43.1383C25.8629 43.1383 25.2622 42.9963 24.7176 42.7235L5.11169 32.9206C4.31752 32.5279 3.67988 31.8776 3.30286 31.0759C2.92584 30.2742 2.8317 29.3683 3.0358 28.5062C3.23989 27.6441 3.73018 26.8766 4.42663 26.329C5.12308 25.7814 5.98458 25.4861 6.87051 25.4912Z" fill="#202020"/>
<path fill-rule="evenodd" clip-rule="evenodd" d="M6.87058 12.7471C7.16469 12.7471 7.46175 12.8118 7.74411 12.953L26.4765 22.3177L45.2029 12.953C45.6685 12.7217 46.2067 12.6841 46.6999 12.8483C47.1931 13.0125 47.6013 13.3652 47.8353 13.8294C48.0671 14.2952 48.1047 14.8339 47.9399 15.3274C47.775 15.8209 47.4211 16.2289 46.9559 16.4618L27.35 26.2647C27.0779 26.4011 26.7778 26.4721 26.4735 26.4721C26.1692 26.4721 25.8691 26.4011 25.597 26.2647L5.99117 16.4618C5.59919 16.2618 5.28572 15.936 5.10097 15.5366C4.91622 15.1372 4.87091 14.6873 4.97228 14.2591C5.07365 13.8309 5.31585 13.4491 5.66005 13.175C6.00426 12.9008 6.43054 12.7501 6.87058 12.7471Z" fill="#202020"/>
</g>
<defs>
<clipPath id="clip0">
<rect width="50" height="50" fill="white"/>
</clipPath>
</defs>
</svg>
