<svg width="21" height="20" viewBox="0 0 21 20" fill="none" xmlns="http://www.w3.org/2000/svg">
<path d="M19.982 16.1553C19.982 17.9212 18.9743 19.2424 17.5667 19.7511C16.994 19.9558 16.3926 20.0582 15.7336 19.9622C14.5915 19.7927 13.7502 19.2392 13.0912 18.3403C12.7297 17.8444 12.5697 17.2686 12.5122 16.6704C12.445 15.9826 12.4578 15.2852 12.365 14.6038C12.2562 13.804 11.9075 13.081 11.4309 12.4316C10.4552 11.104 9.29711 9.94916 8.03028 8.90306C7.06097 8.1001 5.96689 7.61385 4.68407 7.56586C4.03786 7.54347 3.39165 7.46669 2.75824 7.34512C1.70255 7.14678 0.941172 6.49418 0.461314 5.56325C-0.469612 3.74619 0.109417 1.6572 1.83371 0.563124C2.56629 0.0992605 3.40125 -0.0958819 4.2522 0.0448766C5.76535 0.294403 6.85623 1.11656 7.35528 2.61052C7.45445 2.91443 7.48964 3.24393 7.51843 3.56384C7.57922 4.23244 7.56002 4.91064 7.67519 5.56965C7.84154 6.51017 8.315 7.32913 8.91962 8.06491C9.82175 9.15579 10.8039 10.1731 11.9011 11.0656C12.6913 11.7086 13.5423 12.2557 14.5979 12.3676C15.3017 12.4412 16.0087 12.5276 16.7157 12.5756C18.2065 12.6748 19.4797 13.8008 19.8348 15.1796C19.8732 15.3268 19.9276 15.4707 19.9436 15.6211C19.9756 15.829 19.9756 16.0434 19.982 16.1553Z" fill="black"/>
<path d="M19.9712 3.80698C20.0256 5.20497 19.3122 6.20627 18.2277 6.93566C17.3768 7.50829 16.8905 8.27926 16.5994 9.21978C16.5546 9.36374 16.5322 9.52369 16.4619 9.65166C16.4075 9.75083 16.2891 9.81801 16.1995 9.90118C16.126 9.81801 16.0236 9.74763 15.982 9.65166C15.7709 9.1558 15.5853 8.64395 15.3678 8.1481C15.1662 7.68424 14.8047 7.34834 14.3889 7.07961C13.6403 6.58696 13.0357 5.97594 12.6934 5.12819C12.4854 4.60994 12.431 4.0661 12.4694 3.51587C12.575 1.97072 13.4419 0.92783 14.7792 0.294416C15.4382 -0.015892 16.1771 -0.063878 16.9385 0.0928758C18.2117 0.358397 19.1043 1.08138 19.6481 2.21385C19.8784 2.69051 19.9264 3.25674 20.0576 3.78139C20.0288 3.79418 20 3.80058 19.9712 3.80698Z" fill="black"/>
<path d="M0 16.2098C0 14.9237 0.607821 13.9384 1.59953 13.2474C2.61363 12.5436 3.25344 11.6511 3.54136 10.4675C3.57015 10.3427 3.69491 10.1731 3.79728 10.154C3.95084 10.1252 4.02121 10.2819 4.066 10.4483C4.31553 11.3472 4.65783 12.1981 5.4128 12.806C5.79349 13.1131 6.20617 13.3882 6.54847 13.7337C7.26826 14.4567 7.58816 15.3396 7.55937 16.3761C7.52418 17.5662 6.99954 18.5067 6.1102 19.2233C5.63674 19.604 5.06091 19.8311 4.42749 19.9431C3.64053 20.0838 2.91434 19.9559 2.22014 19.6487C1.20284 19.1977 0.508649 18.4171 0.198341 17.339C0.0991702 16.9743 0.0671802 16.5873 0 16.2098Z" fill="black"/>
</svg>
