<svg xmlns="http://www.w3.org/2000/svg" width="245" height="62" fill="none" viewBox="0 0 245 62"><rect width="245" height="62" fill="url(#paint0_linear)" rx="10"/><path fill="#262626" d="M67.344 33.9739C67.992 33.9739 68.56 33.8899 69.048 33.7219C69.544 33.5539 69.956 33.3179 70.284 33.0139C70.62 32.7019 70.872 32.3339 71.04 31.9099C71.208 31.4779 71.292 31.0019 71.292 30.4819C71.292 29.4339 70.964 28.6099 70.308 28.0099C69.66 27.4099 68.672 27.1099 67.344 27.1099H64.68V33.9739H67.344ZM67.344 25.1059C68.448 25.1059 69.408 25.2339 70.224 25.4899C71.04 25.7459 71.716 26.1099 72.252 26.5819C72.788 27.0459 73.184 27.6099 73.44 28.2739C73.704 28.9379 73.836 29.6739 73.836 30.4819C73.836 31.2899 73.696 32.0339 73.416 32.7139C73.136 33.3859 72.724 33.9659 72.18 34.4539C71.636 34.9419 70.956 35.3219 70.14 35.5939C69.332 35.8579 68.4 35.9899 67.344 35.9899H64.68V42.3379H62.124V25.1059H67.344ZM86.5193 40.1899V42.3379H76.6553V25.1059H79.2113V40.1899H86.5193ZM98.1628 35.9179L95.6068 29.2339C95.4228 28.7779 95.2388 28.2019 95.0548 27.5059C94.9668 27.8499 94.8748 28.1699 94.7788 28.4659C94.6908 28.7619 94.6028 29.0259 94.5148 29.2579L91.9708 35.9179H98.1628ZM103.215 42.3379H101.247C101.023 42.3379 100.839 42.2819 100.695 42.1699C100.551 42.0579 100.447 41.9139 100.383 41.7379L98.8588 37.7419H91.2628L89.7388 41.7379C89.6828 41.8899 89.5788 42.0299 89.4268 42.1579C89.2748 42.2779 89.0908 42.3379 88.8748 42.3379H86.9068L93.7708 25.1059H96.3508L103.215 42.3379ZM110.363 35.5219V42.3379H107.819V35.5219L101.507 25.1059H103.751C103.975 25.1059 104.155 25.1619 104.291 25.2739C104.427 25.3779 104.539 25.5179 104.627 25.6939L108.371 32.1379C108.523 32.4339 108.659 32.7139 108.779 32.9779C108.907 33.2419 109.019 33.5019 109.115 33.7579C109.203 33.5019 109.303 33.2419 109.415 32.9779C109.535 32.7139 109.671 32.4339 109.823 32.1379L113.555 25.6939C113.635 25.5499 113.743 25.4179 113.879 25.2979C114.023 25.1699 114.203 25.1059 114.419 25.1059H116.675L110.363 35.5219ZM137.994 25.1059V42.3379H136.698C136.498 42.3379 136.33 42.3019 136.194 42.2299C136.066 42.1579 135.934 42.0419 135.798 41.8819L126.066 29.2939C126.082 29.5099 126.094 29.7219 126.102 29.9299C126.118 30.1379 126.126 30.3339 126.126 30.5179V42.3379H123.882V25.1059H125.202C125.426 25.1059 125.594 25.1339 125.706 25.1899C125.818 25.2379 125.942 25.3539 126.078 25.5379L135.834 38.1379C135.81 37.9059 135.79 37.6819 135.774 37.4659C135.766 37.2419 135.762 37.0339 135.762 36.8419V25.1059H137.994ZM158.313 33.7219C158.313 35.0099 158.105 36.1939 157.689 37.2739C157.281 38.3459 156.701 39.2739 155.949 40.0579C155.197 40.8339 154.297 41.4379 153.249 41.8699C152.201 42.3019 151.037 42.5179 149.757 42.5179C148.485 42.5179 147.321 42.3019 146.265 41.8699C145.217 41.4379 144.317 40.8339 143.565 40.0579C142.821 39.2739 142.241 38.3459 141.825 37.2739C141.409 36.1939 141.201 35.0099 141.201 33.7219C141.201 32.4419 141.409 31.2619 141.825 30.1819C142.241 29.1019 142.821 28.1739 143.565 27.3979C144.317 26.6139 145.217 26.0059 146.265 25.5739C147.321 25.1339 148.485 24.9139 149.757 24.9139C151.037 24.9139 152.201 25.1339 153.249 25.5739C154.297 26.0059 155.197 26.6139 155.949 27.3979C156.701 28.1739 157.281 29.1019 157.689 30.1819C158.105 31.2619 158.313 32.4419 158.313 33.7219ZM155.697 33.7219C155.697 32.6979 155.557 31.7779 155.277 30.9619C154.997 30.1459 154.597 29.4539 154.077 28.8859C153.565 28.3179 152.941 27.8819 152.205 27.5779C151.477 27.2739 150.661 27.1219 149.757 27.1219C148.853 27.1219 148.033 27.2739 147.297 27.5779C146.569 27.8819 145.945 28.3179 145.425 28.8859C144.905 29.4539 144.505 30.1459 144.225 30.9619C143.945 31.7779 143.805 32.6979 143.805 33.7219C143.805 34.7539 143.945 35.6779 144.225 36.4939C144.505 37.3019 144.905 37.9899 145.425 38.5579C145.945 39.1259 146.569 39.5619 147.297 39.8659C148.033 40.1619 148.853 40.3099 149.757 40.3099C150.661 40.3099 151.477 40.1619 152.205 39.8659C152.941 39.5619 153.565 39.1259 154.077 38.5579C154.597 37.9899 154.997 37.3019 155.277 36.4939C155.557 35.6779 155.697 34.7539 155.697 33.7219ZM183.741 25.1059L178.365 42.3379H176.061L171.861 29.5579C171.765 29.3019 171.681 28.9939 171.609 28.6339C171.521 29.0019 171.437 29.3099 171.357 29.5579L167.109 42.3379H164.817L159.441 25.1059H161.577C161.801 25.1059 161.989 25.1619 162.141 25.2739C162.293 25.3779 162.393 25.5219 162.441 25.7059L165.837 37.2379C165.901 37.4619 165.957 37.7059 166.005 37.9699C166.061 38.2339 166.117 38.5099 166.173 38.7979C166.229 38.5099 166.285 38.2339 166.341 37.9699C166.405 37.7059 166.477 37.4619 166.557 37.2379L170.445 25.7059C170.493 25.5459 170.593 25.4059 170.745 25.2859C170.905 25.1659 171.093 25.1059 171.309 25.1059H172.041C172.265 25.1059 172.449 25.1619 172.593 25.2739C172.737 25.3859 172.841 25.5299 172.905 25.7059L176.781 37.2379C176.925 37.6779 177.053 38.1779 177.165 38.7379C177.261 38.1859 177.365 37.6859 177.477 37.2379L180.885 25.7059C180.925 25.5459 181.025 25.4059 181.185 25.2859C181.345 25.1659 181.533 25.1059 181.749 25.1059H183.741Z"/><defs><linearGradient id="paint0_linear" x1="223" x2="0" y1="0" y2="62" gradientUnits="userSpaceOnUse"><stop offset="0" stop-color="#D7D7D7"/><stop offset=".693" stop-color="#F1F1F1"/><stop offset="1" stop-color="#DDD"/></linearGradient></defs></svg>