<svg xmlns="http://www.w3.org/2000/svg" width="236" height="48" fill="none" viewBox="0 0 236 48"><path fill="#FBFBFB" d="M38.9649 38.5028C38.9649 41.9463 36.9999 44.5227 34.2551 45.5146C33.1383 45.9138 31.9656 46.1135 30.6805 45.9263C28.4534 45.5958 26.8129 44.5164 25.5278 42.7636C24.8229 41.7966 24.5109 40.6738 24.3988 39.5073C24.2678 38.1661 24.2927 36.8061 24.1117 35.4774C23.8996 33.9178 23.2196 32.5079 22.2903 31.2416C20.3876 28.6528 18.1294 26.4009 15.659 24.361C13.7689 22.7952 11.6354 21.847 9.13394 21.7534C7.87383 21.7098 6.61372 21.56 5.37857 21.323C3.31997 20.9362 1.83529 19.6637 0.899563 17.8483C-0.915743 14.3051 0.213364 10.2315 3.57573 8.09809C5.00427 7.19356 6.63244 6.81303 8.29179 7.08751C11.2424 7.57409 13.3696 9.17729 14.3428 12.0905C14.5362 12.6831 14.6048 13.3257 14.6609 13.9495C14.7795 15.2533 14.742 16.5757 14.9666 17.8608C15.291 19.6948 16.2142 21.2918 17.3933 22.7266C19.1524 24.8538 21.0676 26.8375 23.2071 28.5779C24.748 29.8318 26.4075 30.8986 28.4659 31.1168C29.8383 31.2603 31.217 31.4288 32.5956 31.5224C35.5027 31.7159 37.9854 33.9116 38.6779 36.6002C38.7527 36.8873 38.8588 37.1679 38.89 37.4611C38.9524 37.8666 38.9524 38.2846 38.9649 38.5028Z"/><path fill="#FBFBFB" d="M38.9443 14.4234C39.0503 17.1495 37.6592 19.102 35.5444 20.5243C33.8852 21.641 32.9369 23.1444 32.3692 24.9784C32.2819 25.2591 32.2382 25.571 32.1011 25.8205C31.995 26.0139 31.7642 26.1449 31.5894 26.3071C31.4461 26.1449 31.2464 26.0077 31.1653 25.8205C30.7537 24.8536 30.3917 23.8555 29.9676 22.8886C29.5745 21.9841 28.8696 21.3291 28.0588 20.805C26.599 19.8444 25.42 18.6529 24.7525 16.9998C24.3469 15.9892 24.2409 14.9287 24.3157 13.8558C24.5217 10.8427 26.2121 8.80907 28.8198 7.57392C30.1049 6.96882 31.5458 6.87524 33.0305 7.18091C35.5132 7.69868 37.2538 9.1085 38.3142 11.3168C38.7633 12.2463 38.8569 13.3504 39.1127 14.3735C39.0566 14.3985 39.0004 14.4109 38.9443 14.4234Z"/><path fill="#FBFBFB" d="M0 38.609C0 36.1011 1.18525 34.1797 3.11908 32.8323C5.09658 31.4599 6.34421 29.7195 6.90565 27.4115C6.96179 27.1681 7.20508 26.8374 7.4047 26.8002C7.70414 26.744 7.84136 27.0496 7.9287 27.3741C8.41528 29.1269 9.08277 30.7862 10.555 31.9716C11.2973 32.5704 12.102 33.1069 12.7695 33.7806C14.1731 35.1904 14.7969 36.9121 14.7408 38.9333C14.6722 41.254 13.6491 43.0879 11.9149 44.4853C10.9916 45.2277 9.86878 45.6705 8.63361 45.8889C7.09903 46.1633 5.68296 45.9139 4.32927 45.3148C2.34554 44.4354 0.991866 42.9132 0.386765 40.8109C0.193382 40.0998 0.131001 39.3451 0 38.609Z"/><path fill="#fff" d="M62.224 19.884C63.112 19.884 63.952 19.98 64.744 20.172C65.536 20.364 66.196 20.628 66.724 20.964C67.348 21.348 67.828 21.84 68.164 22.44C68.524 23.016 68.704 23.652 68.704 24.348C68.704 25.188 68.44 25.884 67.912 26.436C67.384 26.964 66.7 27.228 65.86 27.228C65.02 27.228 64.348 26.988 63.844 26.508C63.34 26.028 63.088 25.38 63.088 24.564C63.088 23.844 63.316 23.22 63.772 22.692C64.228 22.164 64.792 21.804 65.464 21.612C65.272 21.348 64.972 21.144 64.564 21C64.18 20.832 63.76 20.748 63.304 20.748C61.864 20.748 60.736 21.54 59.92 23.124C59.128 24.684 58.732 26.736 58.732 29.28C58.732 31.848 59.188 33.696 60.1 34.824C61.012 35.952 62.152 36.516 63.52 36.516C64.336 36.516 65.152 36.3 65.968 35.868C66.808 35.436 67.564 34.68 68.236 33.6L68.848 33.816C68.368 35.376 67.528 36.72 66.328 37.848C65.128 38.952 63.58 39.504 61.684 39.504C59.212 39.504 57.196 38.688 55.636 37.056C54.076 35.424 53.296 33 53.296 29.784C53.296 27.672 53.68 25.872 54.448 24.384C55.216 22.896 56.272 21.78 57.616 21.036C58.96 20.268 60.496 19.884 62.224 19.884ZM75.4754 39.252C73.9394 39.252 72.7874 38.856 72.0194 38.064C71.2754 37.272 70.9034 36.228 70.9034 34.932C70.9034 33.852 71.1794 32.964 71.7314 32.268C72.3074 31.548 72.9914 30.996 73.7834 30.612C74.5994 30.228 75.6314 29.82 76.8794 29.388C78.1994 28.932 79.1594 28.524 79.7594 28.164C80.3834 27.78 80.6954 27.264 80.6954 26.616V23.808C80.6954 22.8 80.4554 22.02 79.9754 21.468C79.5194 20.892 78.7994 20.604 77.8154 20.604C76.6634 20.604 75.7874 20.892 75.1874 21.468C75.8594 21.708 76.3754 22.068 76.7354 22.548C77.1194 23.028 77.3114 23.592 77.3114 24.24C77.3114 25.056 77.0354 25.704 76.4834 26.184C75.9314 26.664 75.2594 26.904 74.4674 26.904C73.6274 26.904 72.9794 26.64 72.5234 26.112C72.0674 25.584 71.8394 24.924 71.8394 24.132C71.8394 23.46 71.9954 22.896 72.3074 22.44C72.6434 21.96 73.1474 21.516 73.8194 21.108C74.4674 20.724 75.2594 20.424 76.1954 20.208C77.1554 19.992 78.1994 19.884 79.3274 19.884C80.5034 19.884 81.5234 20.004 82.3874 20.244C83.2514 20.484 83.9714 20.892 84.5474 21.468C85.0754 21.996 85.4234 22.644 85.5914 23.412C85.7834 24.18 85.8794 25.224 85.8794 26.544V36.336C85.8794 36.912 85.9274 37.32 86.0234 37.56C86.1434 37.8 86.3594 37.92 86.6714 37.92C87.0314 37.92 87.4634 37.716 87.9674 37.308L88.3274 37.92C87.2474 38.808 85.9274 39.252 84.3674 39.252C83.0474 39.252 82.1234 38.988 81.5954 38.46C81.0674 37.932 80.7914 37.224 80.7674 36.336C79.5674 38.28 77.8034 39.252 75.4754 39.252ZM78.2474 36.948C79.1834 36.948 79.9994 36.456 80.6954 35.472V28.092C80.4074 28.572 79.7954 29.1 78.8594 29.676C77.9234 30.276 77.2154 30.876 76.7354 31.476C76.2554 32.076 76.0154 32.94 76.0154 34.068C76.0154 35.052 76.2194 35.784 76.6274 36.264C77.0354 36.72 77.5754 36.948 78.2474 36.948ZM101.74 19.884C102.82 19.884 103.636 20.208 104.188 20.856C104.74 21.504 105.016 22.284 105.016 23.196C105.016 24.084 104.752 24.816 104.224 25.392C103.72 25.944 103.048 26.22 102.208 26.22C101.392 26.22 100.744 26.016 100.264 25.608C99.7842 25.176 99.5442 24.612 99.5442 23.916C99.5442 22.764 100.072 21.828 101.128 21.108C101.032 21.084 100.888 21.072 100.696 21.072C100.456 21.072 100.264 21.096 100.12 21.144C99.2082 21.288 98.4282 21.84 97.7802 22.8C97.1562 23.76 96.8442 24.744 96.8442 25.752V35.292C96.8442 36.396 97.1082 37.164 97.6362 37.596C98.1882 38.028 99.0522 38.244 100.228 38.244V39C99.8922 39 99.6162 38.988 99.4002 38.964C96.9522 38.892 95.3202 38.856 94.5042 38.856C93.8562 38.856 92.3802 38.892 90.0762 38.964C89.8842 38.988 89.6442 39 89.3562 39V38.244C90.2202 38.244 90.8202 38.064 91.1562 37.704C91.4922 37.32 91.6602 36.636 91.6602 35.652V24.312C91.6602 23.208 91.4922 22.404 91.1562 21.9C90.8202 21.396 90.2202 21.144 89.3562 21.144V20.388C90.1242 20.46 90.8682 20.496 91.5882 20.496C93.7242 20.496 95.4762 20.328 96.8442 19.992V23.34C97.3002 22.308 97.9602 21.48 98.8242 20.856C99.6882 20.208 100.66 19.884 101.74 19.884ZM123.381 35.04C123.381 36.144 123.549 36.948 123.885 37.452C124.221 37.956 124.821 38.208 125.685 38.208V38.964C124.941 38.892 124.197 38.856 123.453 38.856C121.317 38.856 119.565 39.024 118.197 39.36V36.264C117.381 38.424 115.821 39.504 113.517 39.504C111.261 39.504 109.461 38.688 108.117 37.056C106.797 35.4 106.149 32.916 106.173 29.604C106.173 27.492 106.509 25.716 107.181 24.276C107.877 22.812 108.825 21.72 110.025 21C111.249 20.256 112.641 19.884 114.201 19.884C115.953 19.884 117.285 20.34 118.197 21.252V15.132C118.197 14.028 118.017 13.224 117.657 12.72C117.321 12.216 116.733 11.964 115.893 11.964V11.208C116.661 11.28 117.405 11.316 118.125 11.316C120.213 11.316 121.965 11.148 123.381 10.812V35.04ZM114.993 37.956C115.785 37.956 116.481 37.668 117.081 37.092C117.705 36.516 118.077 35.736 118.197 34.752V22.152C117.597 21.336 116.721 20.928 115.569 20.928C114.297 20.928 113.313 21.66 112.617 23.124C111.921 24.588 111.585 26.772 111.609 29.676C111.585 32.604 111.861 34.716 112.437 36.012C113.037 37.308 113.889 37.956 114.993 37.956ZM139.46 19.956C141.14 19.956 142.412 20.412 143.276 21.324C143.732 21.804 144.056 22.404 144.248 23.124C144.44 23.844 144.536 24.816 144.536 26.04V35.652C144.536 36.636 144.74 37.32 145.148 37.704C145.556 38.064 146.264 38.244 147.272 38.244V39C145.064 38.904 143.624 38.856 142.952 38.856C142.28 38.856 140.936 38.904 138.92 39V38.244C139.808 38.244 140.42 38.064 140.756 37.704C141.116 37.32 141.296 36.636 141.296 35.652V25.248C141.296 23.904 141.104 22.884 140.72 22.188C140.336 21.468 139.556 21.108 138.38 21.108C137.396 21.108 136.52 21.396 135.752 21.972C134.984 22.548 134.384 23.34 133.952 24.348C133.544 25.332 133.34 26.436 133.34 27.66V35.652C133.34 36.636 133.508 37.32 133.844 37.704C134.204 38.064 134.828 38.244 135.716 38.244V39C133.7 38.904 132.356 38.856 131.684 38.856C131.012 38.856 129.572 38.904 127.364 39V38.244C128.372 38.244 129.08 38.064 129.488 37.704C129.896 37.32 130.1 36.636 130.1 35.652V24.384C130.1 23.28 129.896 22.476 129.488 21.972C129.08 21.468 128.372 21.216 127.364 21.216V20.46C128.132 20.532 128.876 20.568 129.596 20.568C131.108 20.568 132.356 20.4 133.34 20.064V24.312C133.94 22.776 134.768 21.672 135.824 21C136.904 20.304 138.116 19.956 139.46 19.956ZM164.469 34.68C164.037 36 163.221 37.14 162.021 38.1C160.845 39.036 159.417 39.504 157.737 39.504C156.033 39.504 154.557 39.12 153.309 38.352C152.061 37.56 151.101 36.468 150.429 35.076C149.781 33.66 149.457 32.028 149.457 30.18C149.457 28.092 149.793 26.28 150.465 24.744C151.137 23.208 152.085 22.032 153.309 21.216C154.533 20.376 155.961 19.956 157.593 19.956C159.753 19.956 161.409 20.616 162.561 21.936C163.737 23.232 164.325 25.212 164.325 27.876H153.057C152.985 28.548 152.949 29.316 152.949 30.18C152.949 31.764 153.201 33.144 153.705 34.32C154.233 35.496 154.917 36.408 155.757 37.056C156.621 37.68 157.521 37.992 158.457 37.992C159.609 37.992 160.629 37.716 161.517 37.164C162.405 36.612 163.149 35.688 163.749 34.392L164.469 34.68ZM157.449 20.64C156.321 20.64 155.349 21.192 154.533 22.296C153.717 23.4 153.213 25.032 153.021 27.192H160.869C160.917 25.32 160.641 23.76 160.041 22.512C159.465 21.264 158.601 20.64 157.449 20.64ZM176.056 19.956C177.664 19.956 179.056 20.34 180.232 21.108C181.36 21.852 181.924 22.776 181.924 23.88C181.924 24.504 181.744 24.996 181.384 25.356C181.024 25.716 180.568 25.896 180.016 25.896C179.464 25.896 178.996 25.74 178.612 25.428C178.228 25.092 178.036 24.648 178.036 24.096C178.036 23.592 178.18 23.172 178.468 22.836C178.756 22.476 179.116 22.236 179.548 22.116C179.308 21.684 178.876 21.324 178.252 21.036C177.652 20.748 177.004 20.604 176.308 20.604C175.42 20.604 174.592 20.892 173.824 21.468C173.056 22.02 172.42 22.956 171.916 24.276C171.412 25.572 171.16 27.288 171.16 29.424C171.16 32.4 171.64 34.572 172.6 35.94C173.56 37.284 174.808 37.956 176.344 37.956C177.376 37.956 178.348 37.656 179.26 37.056C180.196 36.456 180.964 35.52 181.564 34.248L182.248 34.5C181.84 35.868 181.072 37.044 179.944 38.028C178.84 39.012 177.4 39.504 175.624 39.504C174.136 39.504 172.78 39.12 171.556 38.352C170.356 37.584 169.408 36.48 168.712 35.04C168.016 33.576 167.668 31.884 167.668 29.964C167.668 28.02 168.016 26.292 168.712 24.78C169.432 23.268 170.428 22.092 171.7 21.252C172.972 20.388 174.424 19.956 176.056 19.956ZM190.36 20.496H195.688V21.216H190.36V35.148C190.36 36.228 190.552 37.008 190.936 37.488C191.344 37.968 191.92 38.208 192.664 38.208C193.408 38.208 194.044 37.908 194.572 37.308C195.1 36.708 195.544 35.724 195.904 34.356L196.624 34.536C196.024 37.848 194.464 39.504 191.944 39.504C191.128 39.504 190.456 39.408 189.928 39.216C189.4 39.024 188.932 38.724 188.524 38.316C187.996 37.788 187.624 37.14 187.408 36.372C187.216 35.604 187.12 34.572 187.12 33.276V21.216H183.664V20.496H187.12V14.988C188.464 14.94 189.544 14.772 190.36 14.484V20.496ZM212.914 34.68C212.482 36 211.666 37.14 210.466 38.1C209.29 39.036 207.862 39.504 206.182 39.504C204.478 39.504 203.002 39.12 201.754 38.352C200.506 37.56 199.546 36.468 198.874 35.076C198.226 33.66 197.902 32.028 197.902 30.18C197.902 28.092 198.238 26.28 198.91 24.744C199.582 23.208 200.53 22.032 201.754 21.216C202.978 20.376 204.406 19.956 206.038 19.956C208.198 19.956 209.854 20.616 211.006 21.936C212.182 23.232 212.77 25.212 212.77 27.876H201.502C201.43 28.548 201.394 29.316 201.394 30.18C201.394 31.764 201.646 33.144 202.15 34.32C202.678 35.496 203.362 36.408 204.202 37.056C205.066 37.68 205.966 37.992 206.902 37.992C208.054 37.992 209.074 37.716 209.962 37.164C210.85 36.612 211.594 35.688 212.194 34.392L212.914 34.68ZM205.894 20.64C204.766 20.64 203.794 21.192 202.978 22.296C202.162 23.4 201.658 25.032 201.466 27.192H209.314C209.362 25.32 209.086 23.76 208.486 22.512C207.91 21.264 207.046 20.64 205.894 20.64ZM231.881 35.076C231.881 36.18 232.085 36.984 232.493 37.488C232.901 37.992 233.609 38.244 234.617 38.244V39C233.873 38.928 233.129 38.892 232.385 38.892C230.873 38.892 229.625 39.06 228.641 39.396V36.192C228.209 37.272 227.561 38.1 226.697 38.676C225.833 39.228 224.777 39.504 223.529 39.504C221.225 39.504 219.413 38.676 218.093 37.02C216.797 35.364 216.161 32.94 216.185 29.748C216.185 27.66 216.545 25.884 217.265 24.42C218.009 22.932 218.993 21.816 220.217 21.072C221.465 20.328 222.833 19.956 224.321 19.956C225.233 19.956 226.061 20.136 226.805 20.496C227.573 20.832 228.185 21.36 228.641 22.08V15.096C228.641 13.992 228.437 13.188 228.029 12.684C227.621 12.18 226.913 11.928 225.905 11.928V11.172C226.673 11.244 227.417 11.28 228.137 11.28C229.649 11.28 230.897 11.112 231.881 10.776V35.076ZM224.573 38.424C225.509 38.424 226.349 38.064 227.093 37.344C227.837 36.624 228.353 35.604 228.641 34.284V23.556C227.993 21.708 226.649 20.784 224.609 20.784C223.121 20.784 221.921 21.552 221.009 23.088C220.097 24.6 219.653 26.82 219.677 29.748C219.653 32.628 220.061 34.8 220.901 36.264C221.741 37.704 222.965 38.424 224.573 38.424Z"/></svg>