<svg xmlns="http://www.w3.org/2000/svg" width="641" height="610" fill="none" viewBox="0 0 641 610"><g clip-path="url(#clip0)"><path fill="url(#paint0_linear)" d="M609.451 492.737C609.451 546.597 578.716 586.893 535.784 602.409C518.317 608.652 499.974 611.775 479.875 608.847C445.041 603.677 419.381 586.796 399.282 559.379C388.256 544.254 383.376 526.692 381.622 508.447C379.572 487.469 379.963 466.199 377.132 445.416C373.814 421.022 363.179 398.97 348.642 379.164C318.884 338.672 283.562 303.449 244.924 271.543C215.36 247.053 181.99 232.222 142.864 230.759C123.155 230.076 103.445 227.734 84.1263 224.026C51.9278 217.977 28.7058 198.072 14.0701 169.679C-14.3232 114.259 3.33722 50.5446 55.9282 17.1753C78.2718 3.02745 103.738 -2.9244 129.692 1.36874C175.843 8.97929 209.115 34.0551 224.336 79.6209C227.361 88.8901 228.434 98.9399 229.312 108.697C231.166 129.089 230.581 149.775 234.093 169.874C239.167 198.56 253.607 223.538 272.048 245.98C299.563 279.252 329.519 310.28 362.984 337.501C387.085 357.112 413.04 373.799 445.236 377.212C466.702 379.457 488.265 382.092 509.829 383.556C555.298 386.581 594.131 420.924 604.961 462.978C606.133 467.467 607.792 471.856 608.28 476.444C609.256 482.785 609.256 489.324 609.451 492.737Z"/><path fill="url(#paint1_linear)" d="M609.123 116.113C610.782 158.752 589.023 189.291 555.946 211.538C529.993 229.003 515.161 252.518 506.283 281.203C504.916 285.594 504.233 290.473 502.089 294.376C500.43 297.4 496.819 299.449 494.086 301.986C491.844 299.449 488.721 297.303 487.452 294.376C481.014 279.252 475.353 263.641 468.719 248.517C462.57 234.369 451.544 224.124 438.862 215.928C416.03 200.902 397.59 182.266 387.15 156.41C380.806 140.603 379.147 124.016 380.318 107.234C383.539 60.1071 409.979 28.2989 450.767 8.97981C470.866 -0.484583 493.403 -1.94816 516.625 2.83283C555.458 10.9312 582.682 32.9822 599.268 67.5225C606.292 82.0607 607.756 99.3307 611.758 115.333C610.879 115.723 610.001 115.918 609.123 116.113Z"/><path fill="url(#paint2_linear)" d="M0 494.394C0 455.168 18.5385 425.116 48.7857 404.041C79.7157 382.575 99.2299 355.353 108.011 319.254C108.89 315.447 112.695 310.274 115.817 309.692C120.501 308.813 122.647 313.593 124.013 318.668C131.624 346.084 142.064 372.037 165.09 390.578C176.701 399.944 189.288 408.335 199.728 418.873C221.682 440.924 231.439 467.853 230.561 499.466C229.487 535.764 213.486 564.449 186.361 586.306C171.921 597.917 154.358 604.843 135.038 608.259C111.036 612.551 88.8874 608.65 67.7143 599.28C36.6866 585.525 15.5138 561.716 6.0494 528.834C3.02469 517.711 2.049 505.908 0 494.394Z"/></g><defs><linearGradient id="paint0_linear" x1="305.023" x2="305.023" y1="0" y2="609.955" gradientUnits="userSpaceOnUse"><stop stop-color="#F9F9F9"/><stop offset="1" stop-color="#F4BEBE"/></linearGradient><linearGradient id="paint1_linear" x1="495.864" x2="495.864" y1=".179" y2="301.986" gradientUnits="userSpaceOnUse"><stop stop-color="#F9F9F9"/><stop offset="1" stop-color="#F4BEBE"/></linearGradient><linearGradient id="paint2_linear" x1="115.308" x2="115.308" y1="309.587" y2="609.998" gradientUnits="userSpaceOnUse"><stop stop-color="#F9F9F9"/><stop offset="1" stop-color="#F4BEBE"/></linearGradient><clipPath id="clip0"><rect width="640.5" height="610" fill="#fff"/></clipPath></defs></svg>